<svg viewBox="0 0 1933.01 744.8" xmlns="http://www.w3.org/2000/svg"><path d="m81.48 743.18h15.53v-40.86h58.75v-11.42h-58.75v-27.43h59.93v-11.42h-75.46z"/><path d="m540 871.44c0 16.53-11.39 26-31.26 26s-31.26-9.48-31.26-26v-55.32h-15.48v55.59c0 23.61 17 37.16 46.78 37.16s46.79-13.6 46.79-37.3v-55.45h-15.57z" transform="translate(-174.66 -164.07)"/><path d="m746.88 870.57c14.45-1.48 28.57-10.15 28.57-26.69s-14.52-27.76-36.12-27.76h-46.11v91.13h15.52v-35.62h21.43l28.83 35.62h18.51zm-38.14-10.22v-32.81h28.9c12.83 0 21.78 6.72 21.78 16.34s-8.95 16.47-21.78 16.47z" transform="translate(-174.66 -164.07)"/><path d="m813.62 721.75-63.75-69.46-.21-.24h-15.44v91.13h15.52v-71.16l64.58 70.93.22.23h14.6v-91.13h-15.52z"/><path d="m966.81 652.05h15.52v91.13h-15.52z"/><path d="m1112.16 663.47h35.73v79.71h15.52v-79.71h35.89v-11.42h-87.14z"/><path d="m1581.89 871.44c0 16.53-11.4 26-31.27 26s-31.26-9.48-31.26-26v-55.32h-15.53v55.59c0 23.61 17.06 37.16 46.79 37.16s46.79-13.6 46.79-37.3v-55.45h-15.52z" transform="translate(-174.66 -164.07)"/><path d="m1788.74 870.57c14.44-1.48 28.57-10.15 28.57-26.69s-14.52-27.76-36.12-27.76h-46.12v91.13h15.53v-35.62h21.4l28.79 35.62h18.51zm-38.14-10.22v-32.81h28.89c12.83 0 21.79 6.72 21.79 16.34s-9 16.47-21.79 16.47z" transform="translate(-174.66 -164.07)"/><path d="m1776.07 743.18h75.46v-11.41h-59.93v-29.45h58.75v-11.42h-58.75v-27.43h59.93v-11.42h-75.46z"/><path d="m0 524.38h1933.01v15.24h-1933.01z" fill="#ce202f"/><path d="m209.57 479.93a216.71 216.71 0 0 0 41.21 42.51 255.65 255.65 0 0 0 55.24 33 335.46 335.46 0 0 0 67.65 21.29 387.83 387.83 0 0 0 78.24 7.62c28.72 0 55.07-2.91 78.3-8.63s44.34-13.43 62.8-22.89a236.3 236.3 0 0 0 49-33 283.33 283.33 0 0 0 36.58-38.83l.83-1.07h-51.36c-4.2 5-8.76 10-13.71 14.95a209.18 209.18 0 0 1 -37.35 29.29 215.13 215.13 0 0 1 -45.26 21.11 158.47 158.47 0 0 1 -50.33 8.11c-29.25 0-56.77-4.08-81.81-12.13s-47-19.83-65.24-35.06a163.52 163.52 0 0 1 -43.21-55.95c-10.43-21.9-15.71-47.1-15.71-74.91s5.41-53.1 16.06-75.2a169.44 169.44 0 0 1 43.94-56.67c18.5-15.51 40.51-27.59 65.43-35.92s52.13-12.55 80.88-12.55c33.19 0 63 7.57 88.61 22.49 20 11.69 38.8 28.82 56 51h53l-.81-1.05a267.42 267.42 0 0 0 -37.18-38.87 247.93 247.93 0 0 0 -49.66-33 300 300 0 0 0 -61.71-22.87c-22.41-5.72-47.24-8.63-73.81-8.63a389 389 0 0 0 -79.32 7.76 336.62 336.62 0 0 0 -68.37 21.72 267.31 267.31 0 0 0 -56.14 33.54 221.18 221.18 0 0 0 -42.11 43.09 191.07 191.07 0 0 0 -26.4 50.17 169.54 169.54 0 0 0 -.18 109.83 188.58 188.58 0 0 0 25.9 49.75z" transform="translate(-174.66 -164.07)"/><path d="m679.81 9.17h86.39v401.61h-86.39z"/><path d="m1096.45 410.79h86.39v-373.56h181.21v-28.05h-449.17v28.05h181.57z"/><path d="m1651.15 410.79h86.39v-173.3l193.88-226.46 1.59-1.85h-48.63l-172.41 201.79-172.81-201.4-.34-.39h-89.26l201.59 234.62z"/></svg>