<svg viewBox="0 0 40 40" xmlns="http://www.w3.org/2000/svg"><g fill="none" stroke="#171717" stroke-linecap="round" stroke-linejoin="round" stroke-width="2"><path d="m35.52 17.49-3.52-.49a11.44 11.44 0 0 0 -1.34-3.21l2.12-2.79a.81.81 0 0 0 -.07-.94l-2.71-2.72a.7.7 0 0 0 -.87-.07l-2.84 2.07a13.58 13.58 0 0 0 -3.22-1.34l-.53-3.48a.66.66 0 0 0 -.67-.52h-3.75a.73.73 0 0 0 -.67.53l-.53 3.47a11.47 11.47 0 0 0 -3.22 1.34l-2.87-2.07a.71.71 0 0 0 -.87.07l-2.68 2.66a.7.7 0 0 0 -.07.87l2.08 2.87a11.15 11.15 0 0 0 -1.29 3.26l-3.41.53a.66.66 0 0 0 -.54.67v3.7a.71.71 0 0 0 .54.67l3.34.54a13.2 13.2 0 0 0 1.34 3.34l-2 2.74a.7.7 0 0 0 .07.86l2.66 2.68a.7.7 0 0 0 .87.06l2.74-2a13.32 13.32 0 0 0 3.35 1.4l.53 3.28a.66.66 0 0 0 .67.53h3.75a.73.73 0 0 0 .67-.53l.53-3.28a11.47 11.47 0 0 0 3.35-1.4l2.74 2a.71.71 0 0 0 .87-.06l2.68-2.68a.69.69 0 0 0 .07-.86l-2-2.74a12.24 12.24 0 0 0 1.34-3.34l3.34-.54a.64.64 0 0 0 .5-.67v-3.74a.6.6 0 0 0 -.48-.67z"/><circle cx="20" cy="20" r="6"/></g></svg>