<svg fill="none" height="180" viewBox="0 0 508 180" width="508" xmlns="http://www.w3.org/2000/svg"><g fill="#fff"><path d="m63.7349 65.0923h3.1972v-10.208h7.1263c5.0847 0 8.0508-3.5439 8.0508-7.7427 0-4.1987-2.889-7.7426-8.0508-7.7426h-10.3235zm15.0615-17.9507c0 2.8891-2.0801 4.8922-5.1232 4.8922h-6.7411v-9.7843h6.7411c3.0431 0 5.1232 2.0031 5.1232 4.8921z"/><path d="m106.605 65.0923h3.775l-6.934-10.4776c3.506-.3082 6.664-2.8506 6.664-7.4731 0-4.738-3.351-7.7426-8.05-7.7426h-10.3239v25.6933h3.1972v-10.208h5.1237zm.193-17.9507c0 2.8891-2.08 4.9307-5.124 4.9307h-6.7407v-9.8228h6.7407c3.044 0 5.124 2.0031 5.124 4.8921z"/><path d="m120.565 65.0923h16.833v-2.8506h-13.636v-8.8597h13.367v-2.8505h-13.367v-8.282h13.636v-2.8505h-16.833z"/><path d="m146.348 61.4713c2.119 2.3883 5.393 4.0832 9.861 4.0832 6.934 0 9.476-3.8135 9.476-7.55 0-5.3929-4.776-6.7026-8.975-7.8197-3.274-.886-6.24-1.6564-6.24-4.2373 0-2.4268 2.195-4.0832 5.277-4.0832 2.812 0 5.509.963 7.435 3.0817l1.926-2.3498c-2.158-2.2727-5.201-3.5824-9.13-3.5824-5.046 0-8.821 2.889-8.821 7.1263 0 5.0462 4.584 6.2018 8.706 7.2804 3.389.9245 6.51 1.772 6.51 4.8536 0 1.9646-1.464 4.4299-6.048 4.4299-3.621 0-6.395-1.772-8.089-3.6595z"/><path d="m175.852 65.0923h3.198v-25.6933h-3.198z"/><path d="m190.462 65.0923h8.782c7.974 0 13.174-5.5085 13.174-12.8274 0-7.2804-5.2-12.8659-13.174-12.8659h-8.782zm3.197-2.8506v-19.9922h5.585c6.356 0 9.862 4.4684 9.862 10.0154 0 5.5084-3.621 9.9768-9.862 9.9768z"/><path d="m222.827 65.0923h16.833v-2.8506h-13.636v-8.8597h13.366v-2.8505h-13.366v-8.282h13.636v-2.8505h-16.833z"/><path d="m268.332 65.0923h3.082v-25.6933h-3.197v20.3004l-14.792-20.3004h-3.274v25.6933h3.197v-20.7241z"/><path d="m289.172 65.0923h3.198v-22.8428h8.166v-2.8505h-19.491v2.8505h8.127z"/><path d="m308.524 61.4713c2.119 2.3883 5.393 4.0832 9.862 4.0832 6.933 0 9.476-3.8135 9.476-7.55 0-5.3929-4.777-6.7026-8.975-7.8197-3.275-.886-6.241-1.6564-6.241-4.2373 0-2.4268 2.196-4.0832 5.278-4.0832 2.812 0 5.508.963 7.434 3.0817l1.926-2.3498c-2.157-2.2727-5.2-3.5824-9.129-3.5824-5.047 0-8.822 2.889-8.822 7.1263 0 5.0462 4.584 6.2018 8.706 7.2804 3.39.9245 6.51 1.772 6.51 4.8536 0 1.9646-1.464 4.4299-6.048 4.4299-3.621 0-6.394-1.772-8.089-3.6595z"/><path d="m338.645 47.758c1.772-1.2712 3.159-3.4669 3.159-5.8166 0-1.8875-1.156-2.9276-2.427-2.9276-1.156 0-2.042.963-2.042 2.0801 0 1.1556.771 1.9646 1.849 1.9646.193 0 .463-.0386.54-.0771-.154 1.2327-1.271 2.7735-2.504 3.5824z"/><path d="m367.624 65.0923h8.782c7.974 0 13.174-5.5085 13.174-12.8274 0-7.2804-5.2-12.8659-13.174-12.8659h-8.782zm3.197-2.8506v-19.9922h5.585c6.356 0 9.862 4.4684 9.862 10.0154 0 5.5084-3.621 9.9768-9.862 9.9768z"/><path d="m417.01 65.0923h3.544l-10.362-25.6933h-3.967l-10.324 25.6933h3.544l2.273-5.7011h13.02zm-8.782-22.8428 5.547 14.2912h-11.133z"/><path d="m434.334 65.0923h3.197v-10.8629l10.093-14.8304h-3.737l-7.974 11.9414-7.973-11.9414h-3.737l10.131 14.8304z"/><path d="m133.19 139.304c4.644 5.645 12.201 9.651 22.216 9.651 16.389 0 21.579-9.378 21.579-17.208 0-12.292-10.744-15.388-20.577-18.21-8.286-2.185-15.843-4.279-15.843-11.472 0-6.5557 6.1-11.1992 14.204-11.1992 6.828 0 13.02 2.3672 17.39 7.6481l3.46-3.8241c-4.735-5.3718-11.472-8.5586-20.577-8.5586-11.017 0-19.94 6.2824-19.94 16.2068 0 11.199 10.198 13.93 19.758 16.571 8.558 2.276 16.662 4.643 16.662 13.202 0 5.19-3.551 12.109-16.025 12.109-8.65 0-15.023-4.279-18.938-8.831z"/><path d="m247.301 147.862h5.827l-24.857-60.7292h-6.464l-24.856 60.7292h5.827l6.1-14.932h32.322zm-22.307-55.6305 14.567 35.9645h-29.044z"/><path d="m276.66 147.862h34.599v-4.734h-29.409v-55.9952h-5.19z"/><path d="m337.108 147.862h38.514v-4.734h-33.324v-24.037h32.686v-4.735h-32.686v-22.4887h33.324v-4.7345h-38.514z"/></g><path d="m84.3275 96.593 5.3892 16.586h17.4403l-14.1095 10.251 5.3892 16.587-14.1092-10.251-14.1091 10.251 5.3892-16.587-14.1092-10.251h17.4399z" fill="#d72a30"/><path d="m423.996 96.593 5.389 16.586h17.44l-14.109 10.251 5.389 16.587-14.109-10.251-14.109 10.251 5.389-16.587-14.109-10.251h17.44z" fill="#d72a30"/></svg>